<mxfile host="app.diagrams.net" agent="Mozilla/5.0 (Windows NT 10.0; Win64; x64) AppleWebKit/537.36 (KHTML, like Gecko) Chrome/139.0.0.0 Safari/537.36" version="28.1.0">
  <diagram name="第 1 页" id="imAsda0NH_z6L8WQzGrv">
    <mxGraphModel dx="1426" dy="838" grid="1" gridSize="10" guides="1" tooltips="1" connect="1" arrows="1" fold="1" page="1" pageScale="1" pageWidth="827" pageHeight="1169" math="0" shadow="0">
      <root>
        <mxCell id="0" />
        <mxCell id="1" parent="0" />
        <mxCell id="I7lsxN3QOF1V1FdQuKwC-2" style="edgeStyle=orthogonalEdgeStyle;rounded=0;orthogonalLoop=1;jettySize=auto;html=1;" edge="1" parent="1" source="I7lsxN3QOF1V1FdQuKwC-1">
          <mxGeometry relative="1" as="geometry">
            <mxPoint x="250" y="230" as="targetPoint" />
          </mxGeometry>
        </mxCell>
        <mxCell id="I7lsxN3QOF1V1FdQuKwC-1" value="审核通过" style="rounded=1;whiteSpace=wrap;html=1;" vertex="1" parent="1">
          <mxGeometry x="190" y="90" width="120" height="60" as="geometry" />
        </mxCell>
        <mxCell id="I7lsxN3QOF1V1FdQuKwC-6" value="" style="edgeStyle=orthogonalEdgeStyle;rounded=0;orthogonalLoop=1;jettySize=auto;html=1;" edge="1" parent="1" source="I7lsxN3QOF1V1FdQuKwC-3" target="I7lsxN3QOF1V1FdQuKwC-5">
          <mxGeometry relative="1" as="geometry" />
        </mxCell>
        <mxCell id="I7lsxN3QOF1V1FdQuKwC-21" value="后台补充资料" style="edgeLabel;html=1;align=center;verticalAlign=middle;resizable=0;points=[];" vertex="1" connectable="0" parent="I7lsxN3QOF1V1FdQuKwC-6">
          <mxGeometry x="-0.44" y="-2" relative="1" as="geometry">
            <mxPoint as="offset" />
          </mxGeometry>
        </mxCell>
        <mxCell id="I7lsxN3QOF1V1FdQuKwC-3" value="正常经营" style="rounded=0;whiteSpace=wrap;html=1;" vertex="1" parent="1">
          <mxGeometry x="190" y="230" width="120" height="60" as="geometry" />
        </mxCell>
        <mxCell id="I7lsxN3QOF1V1FdQuKwC-9" value="" style="edgeStyle=orthogonalEdgeStyle;rounded=0;orthogonalLoop=1;jettySize=auto;html=1;" edge="1" parent="1" source="I7lsxN3QOF1V1FdQuKwC-5" target="I7lsxN3QOF1V1FdQuKwC-8">
          <mxGeometry relative="1" as="geometry" />
        </mxCell>
        <mxCell id="I7lsxN3QOF1V1FdQuKwC-23" value="店铺修改店铺信息" style="edgeLabel;html=1;align=center;verticalAlign=middle;resizable=0;points=[];" vertex="1" connectable="0" parent="I7lsxN3QOF1V1FdQuKwC-9">
          <mxGeometry x="-0.35" y="1" relative="1" as="geometry">
            <mxPoint as="offset" />
          </mxGeometry>
        </mxCell>
        <mxCell id="I7lsxN3QOF1V1FdQuKwC-14" style="edgeStyle=orthogonalEdgeStyle;rounded=0;orthogonalLoop=1;jettySize=auto;html=1;" edge="1" parent="1" source="I7lsxN3QOF1V1FdQuKwC-5" target="I7lsxN3QOF1V1FdQuKwC-12">
          <mxGeometry relative="1" as="geometry" />
        </mxCell>
        <mxCell id="I7lsxN3QOF1V1FdQuKwC-15" value="不做处理" style="edgeLabel;html=1;align=center;verticalAlign=middle;resizable=0;points=[];" vertex="1" connectable="0" parent="I7lsxN3QOF1V1FdQuKwC-14">
          <mxGeometry x="-0.0844" y="2" relative="1" as="geometry">
            <mxPoint as="offset" />
          </mxGeometry>
        </mxCell>
        <mxCell id="I7lsxN3QOF1V1FdQuKwC-5" value="待补充资料" style="whiteSpace=wrap;html=1;rounded=0;" vertex="1" parent="1">
          <mxGeometry x="190" y="340" width="120" height="60" as="geometry" />
        </mxCell>
        <mxCell id="I7lsxN3QOF1V1FdQuKwC-11" value="" style="edgeStyle=orthogonalEdgeStyle;rounded=0;orthogonalLoop=1;jettySize=auto;html=1;" edge="1" parent="1" source="I7lsxN3QOF1V1FdQuKwC-8" target="I7lsxN3QOF1V1FdQuKwC-10">
          <mxGeometry relative="1" as="geometry" />
        </mxCell>
        <mxCell id="I7lsxN3QOF1V1FdQuKwC-20" value="拒绝" style="edgeLabel;html=1;align=center;verticalAlign=middle;resizable=0;points=[];" vertex="1" connectable="0" parent="I7lsxN3QOF1V1FdQuKwC-11">
          <mxGeometry x="-0.275" relative="1" as="geometry">
            <mxPoint as="offset" />
          </mxGeometry>
        </mxCell>
        <mxCell id="I7lsxN3QOF1V1FdQuKwC-18" style="edgeStyle=orthogonalEdgeStyle;rounded=0;orthogonalLoop=1;jettySize=auto;html=1;entryX=0;entryY=0.5;entryDx=0;entryDy=0;" edge="1" parent="1" source="I7lsxN3QOF1V1FdQuKwC-8" target="I7lsxN3QOF1V1FdQuKwC-3">
          <mxGeometry relative="1" as="geometry">
            <Array as="points">
              <mxPoint x="120" y="510" />
              <mxPoint x="120" y="260" />
            </Array>
          </mxGeometry>
        </mxCell>
        <mxCell id="I7lsxN3QOF1V1FdQuKwC-19" value="审核通过" style="edgeLabel;html=1;align=center;verticalAlign=middle;resizable=0;points=[];" vertex="1" connectable="0" parent="I7lsxN3QOF1V1FdQuKwC-18">
          <mxGeometry x="0.0667" y="2" relative="1" as="geometry">
            <mxPoint as="offset" />
          </mxGeometry>
        </mxCell>
        <mxCell id="I7lsxN3QOF1V1FdQuKwC-8" value="资料待审核" style="whiteSpace=wrap;html=1;rounded=0;" vertex="1" parent="1">
          <mxGeometry x="190" y="480" width="120" height="60" as="geometry" />
        </mxCell>
        <mxCell id="I7lsxN3QOF1V1FdQuKwC-13" value="" style="edgeStyle=orthogonalEdgeStyle;rounded=0;orthogonalLoop=1;jettySize=auto;html=1;" edge="1" parent="1" source="I7lsxN3QOF1V1FdQuKwC-10" target="I7lsxN3QOF1V1FdQuKwC-12">
          <mxGeometry relative="1" as="geometry" />
        </mxCell>
        <mxCell id="I7lsxN3QOF1V1FdQuKwC-16" value="不做处理" style="edgeLabel;html=1;align=center;verticalAlign=middle;resizable=0;points=[];" vertex="1" connectable="0" parent="I7lsxN3QOF1V1FdQuKwC-13">
          <mxGeometry x="0.05" y="2" relative="1" as="geometry">
            <mxPoint as="offset" />
          </mxGeometry>
        </mxCell>
        <mxCell id="I7lsxN3QOF1V1FdQuKwC-10" value="资料审核驳回" style="whiteSpace=wrap;html=1;rounded=0;" vertex="1" parent="1">
          <mxGeometry x="390" y="480" width="120" height="60" as="geometry" />
        </mxCell>
        <mxCell id="I7lsxN3QOF1V1FdQuKwC-24" style="edgeStyle=orthogonalEdgeStyle;rounded=0;orthogonalLoop=1;jettySize=auto;html=1;entryX=0.5;entryY=1;entryDx=0;entryDy=0;" edge="1" parent="1" source="I7lsxN3QOF1V1FdQuKwC-12" target="I7lsxN3QOF1V1FdQuKwC-8">
          <mxGeometry relative="1" as="geometry">
            <Array as="points">
              <mxPoint x="650" y="580" />
              <mxPoint x="250" y="580" />
            </Array>
          </mxGeometry>
        </mxCell>
        <mxCell id="I7lsxN3QOF1V1FdQuKwC-25" value="店铺修改店铺信息" style="edgeLabel;html=1;align=center;verticalAlign=middle;resizable=0;points=[];" vertex="1" connectable="0" parent="I7lsxN3QOF1V1FdQuKwC-24">
          <mxGeometry x="0.0583" y="-1" relative="1" as="geometry">
            <mxPoint as="offset" />
          </mxGeometry>
        </mxCell>
        <mxCell id="I7lsxN3QOF1V1FdQuKwC-12" value="观点整改" style="whiteSpace=wrap;html=1;rounded=0;" vertex="1" parent="1">
          <mxGeometry x="590" y="480" width="120" height="60" as="geometry" />
        </mxCell>
      </root>
    </mxGraphModel>
  </diagram>
</mxfile>
